<?xml version="1.0" encoding="utf-8"?>
<!-- Generator: Adobe Illustrator 17.0.0, SVG Export Plug-In . SVG Version: 6.00 Build 0)  -->
<!DOCTYPE svg PUBLIC "-//W3C//DTD SVG 1.1//EN" "http://www.w3.org/Graphics/SVG/1.1/DTD/svg11.dtd">
<svg version="1.1" id="Layer_1" xmlns="http://www.w3.org/2000/svg" xmlns:xlink="http://www.w3.org/1999/xlink" x="0px" y="0px"
	 width="32px" height="32px" viewBox="0 0 32 32" enable-background="new 0 0 32 32" xml:space="preserve">
<path fill="#F6921E" d="M5.97,10.84c0-5.45,4.5-9.88,10.05-9.88s10.05,4.42,10.05,9.88v20.19H5.97"/>
<path fill="#FFD88A" d="M6.27,10.91c0-5.38,4.36-9.75,9.75-9.75s9.75,4.36,9.75,9.75v19.93H6.27"/>
<path fill="#84462C" stroke="#4E3A1B" stroke-width="0.2284" stroke-miterlimit="10" d="M25.32,20.96v9.33h-9.3v-0.15
	c0-2.42,1.77-4.62,4.54-5.62l1.04-0.38l1.63-0.59C24.51,23.09,25.32,22.08,25.32,20.96z"/>
<path fill="#84462C" stroke="#4E3A1B" stroke-width="0.2284" stroke-miterlimit="10" d="M16.02,30.14v0.15h-9.3v-9.33
	c0,1.12,0.82,2.13,2.09,2.59l1.63,0.59l1.04,0.38C14.25,25.52,16.02,27.72,16.02,30.14z"/>
<linearGradient id="SVGID_1_" gradientUnits="userSpaceOnUse" x1="311.21" y1="-369.9355" x2="311.21" y2="-367.6002" gradientTransform="matrix(1 0 0 -1 -290 -347)">
	<stop  offset="0.2964" style="stop-color:#808136"/>
	<stop  offset="0.8464" style="stop-color:#A0A243"/>
</linearGradient>
<path fill="url(#SVGID_1_)" stroke="#4E3A1B" stroke-width="0.2284" stroke-miterlimit="10" d="M21.6,20.6v2.34
	c0-0.85-0.26-1.67-0.78-2.34H21.6z"/>
<linearGradient id="SVGID_2_" gradientUnits="userSpaceOnUse" x1="311.6" y1="-365.18" x2="315.32" y2="-365.18" gradientTransform="matrix(1 0 0 -1 -290 -347)">
	<stop  offset="0.2335" style="stop-color:#FFDE8F"/>
	<stop  offset="0.587" style="stop-color:#FBBC57"/>
	<stop  offset="0.7614" style="stop-color:#FAAF40"/>
</linearGradient>
<rect x="21.6" y="15.76" fill="url(#SVGID_2_)" stroke="#4E3A1B" stroke-width="0.2284" stroke-miterlimit="10" width="3.72" height="4.84"/>
<linearGradient id="SVGID_3_" gradientUnits="userSpaceOnUse" x1="311.6" y1="-365.18" x2="307.8801" y2="-365.18" gradientTransform="matrix(1 0 0 -1 -290 -347)">
	<stop  offset="0.2335" style="stop-color:#FFDD8F"/>
	<stop  offset="0.3667" style="stop-color:#FFE7AE"/>
	<stop  offset="0.6333" style="stop-color:#FFF8E8"/>
	<stop  offset="0.7614" style="stop-color:#FFFFFF"/>
</linearGradient>
<path fill="url(#SVGID_3_)" stroke="#4E3A1B" stroke-width="0.2284" stroke-miterlimit="10" d="M21.6,15.76v4.84h-0.78
	c-0.09-0.12-0.19-0.24-0.3-0.35L19,18.73c-0.71-0.71-1.11-1.68-1.11-2.69v-0.28C17.89,15.76,21.6,15.76,21.6,15.76z"/>
<linearGradient id="SVGID_4_" gradientUnits="userSpaceOnUse" x1="300.44" y1="-365.18" x2="296.72" y2="-365.18" gradientTransform="matrix(1 0 0 -1 -290 -347)">
	<stop  offset="0.2335" style="stop-color:#FFDE8F"/>
	<stop  offset="0.587" style="stop-color:#FBBC57"/>
	<stop  offset="0.7614" style="stop-color:#FAAF40"/>
</linearGradient>
<rect x="6.72" y="15.76" fill="url(#SVGID_4_)" stroke="#4E3A1B" stroke-width="0.2284" stroke-miterlimit="10" width="3.72" height="4.84"/>
<linearGradient id="SVGID_5_" gradientUnits="userSpaceOnUse" x1="300.44" y1="-360.33" x2="296.72" y2="-360.33" gradientTransform="matrix(1 0 0 -1 -290 -347)">
	<stop  offset="0.2335" style="stop-color:#FFDE8F"/>
	<stop  offset="0.587" style="stop-color:#FBBC57"/>
	<stop  offset="0.7614" style="stop-color:#FAAF40"/>
</linearGradient>
<rect x="6.72" y="10.91" fill="url(#SVGID_5_)" stroke="#4E3A1B" stroke-width="0.2284" stroke-miterlimit="10" width="3.72" height="4.84"/>
<linearGradient id="SVGID_6_" gradientUnits="userSpaceOnUse" x1="311.6" y1="-360.33" x2="315.32" y2="-360.33" gradientTransform="matrix(1 0 0 -1 -290 -347)">
	<stop  offset="0.2335" style="stop-color:#FFDE8F"/>
	<stop  offset="0.587" style="stop-color:#FBBC57"/>
	<stop  offset="0.7614" style="stop-color:#FAAF40"/>
</linearGradient>
<rect x="21.6" y="10.91" fill="url(#SVGID_6_)" stroke="#4E3A1B" stroke-width="0.2284" stroke-miterlimit="10" width="3.72" height="4.84"/>
<linearGradient id="SVGID_7_" gradientUnits="userSpaceOnUse" x1="300.988" y1="-356.4044" x2="297.1752" y2="-355.0168" gradientTransform="matrix(1 0 0 -1 -290 -347)">
	<stop  offset="0.2335" style="stop-color:#FFDE8F"/>
	<stop  offset="0.587" style="stop-color:#FBBC57"/>
	<stop  offset="0.7614" style="stop-color:#FAAF40"/>
</linearGradient>
<path fill="url(#SVGID_7_)" stroke="#4E3A1B" stroke-width="0.2284" stroke-miterlimit="10" d="M11.51,7.63
	c-0.67,0.92-1.07,2.05-1.07,3.28H6.72c0-2.04,0.66-3.93,1.78-5.47L11.51,7.63z"/>
<linearGradient id="SVGID_8_" gradientUnits="userSpaceOnUse" x1="303.364" y1="-353.4728" x2="300.4693" y2="-350.3686" gradientTransform="matrix(1 0 0 -1 -290 -347)">
	<stop  offset="0.2335" style="stop-color:#FFDE8F"/>
	<stop  offset="0.587" style="stop-color:#FBBC57"/>
	<stop  offset="0.7614" style="stop-color:#FAAF40"/>
</linearGradient>
<path fill="url(#SVGID_8_)" stroke="#4E3A1B" stroke-width="0.2284" stroke-miterlimit="10" d="M14.3,5.6
	c-1.13,0.37-2.1,1.09-2.79,2.03L8.5,5.44c1.14-1.57,2.76-2.77,4.65-3.38L14.3,5.6z"/>
<linearGradient id="SVGID_9_" gradientUnits="userSpaceOnUse" x1="306.619" y1="-352.7791" x2="305.9425" y2="-348.5075" gradientTransform="matrix(1 0 0 -1 -290 -347)">
	<stop  offset="0.2335" style="stop-color:#FFDE8F"/>
	<stop  offset="0.587" style="stop-color:#FBBC57"/>
	<stop  offset="0.7614" style="stop-color:#FAAF40"/>
</linearGradient>
<path fill="url(#SVGID_9_)" stroke="#4E3A1B" stroke-width="0.2284" stroke-miterlimit="10" d="M18.9,2.06L17.75,5.6
	c-0.54-0.18-1.12-0.27-1.72-0.27c-0.6,0-1.18,0.1-1.72,0.27l-1.15-3.54c0.91-0.29,1.87-0.45,2.87-0.45S17.99,1.77,18.9,2.06z"/>
<linearGradient id="SVGID_10_" gradientUnits="userSpaceOnUse" x1="310.182" y1="-354.5473" x2="311.3198" y2="-349.6187" gradientTransform="matrix(1 0 0 -1 -290 -347)">
	<stop  offset="0.2335" style="stop-color:#FFDE8F"/>
	<stop  offset="0.587" style="stop-color:#FBBC57"/>
	<stop  offset="0.7614" style="stop-color:#FAAF40"/>
</linearGradient>
<path fill="url(#SVGID_10_)" stroke="#4E3A1B" stroke-width="0.2284" stroke-miterlimit="10" d="M23.55,5.44l-3.01,2.19
	c-0.68-0.94-1.66-1.66-2.79-2.03l1.15-3.54C20.78,2.68,22.41,3.87,23.55,5.44z"/>
<linearGradient id="SVGID_11_" gradientUnits="userSpaceOnUse" x1="311.0692" y1="-356.267" x2="314.8717" y2="-355.0315" gradientTransform="matrix(1 0 0 -1 -290 -347)">
	<stop  offset="0.2335" style="stop-color:#FFDE8F"/>
	<stop  offset="0.587" style="stop-color:#FBBC57"/>
	<stop  offset="0.7614" style="stop-color:#FAAF40"/>
</linearGradient>
<path fill="url(#SVGID_11_)" stroke="#4E3A1B" stroke-width="0.2284" stroke-miterlimit="10" d="M25.32,10.91H21.6
	c0-1.23-0.39-2.36-1.07-3.28l3.01-2.19C24.66,6.98,25.32,8.87,25.32,10.91z"/>
<line fill="none" stroke="#4E3A1B" stroke-width="0.2284" stroke-miterlimit="10" x1="25.34" y1="10.91" x2="25.32" y2="10.91"/>
<line fill="none" stroke="#4E3A1B" stroke-width="0.2284" stroke-miterlimit="10" x1="17.88" y1="10.91" x2="17.86" y2="10.91"/>
<linearGradient id="SVGID_12_" gradientUnits="userSpaceOnUse" x1="298.58" y1="-371.14" x2="298.58" y2="-367.6" gradientTransform="matrix(1 0 0 -1 -290 -347)">
	<stop  offset="0.2964" style="stop-color:#808136"/>
	<stop  offset="0.8464" style="stop-color:#A0A243"/>
</linearGradient>
<path fill="url(#SVGID_12_)" stroke="#4E3A1B" stroke-width="0.2284" stroke-miterlimit="10" d="M10.44,20.6v3.54l-1.63-0.59
	c-1.27-0.46-2.09-1.47-2.09-2.59V20.6H10.44z"/>
<linearGradient id="SVGID_13_" gradientUnits="userSpaceOnUse" x1="300.44" y1="-360.33" x2="304.16" y2="-360.33" gradientTransform="matrix(1 0 0 -1 -290 -347)">
	<stop  offset="0.2335" style="stop-color:#FFDD8F"/>
	<stop  offset="0.3667" style="stop-color:#FFE7AE"/>
	<stop  offset="0.6333" style="stop-color:#FFF8E8"/>
	<stop  offset="0.7614" style="stop-color:#FFFFFF"/>
</linearGradient>
<rect x="10.44" y="10.91" fill="url(#SVGID_13_)" stroke="#4E3A1B" stroke-width="0.2284" stroke-miterlimit="10" width="3.72" height="4.84"/>
<linearGradient id="SVGID_14_" gradientUnits="userSpaceOnUse" x1="300.7119" y1="-356.169" x2="304.1953" y2="-357.5061" gradientTransform="matrix(1 0 0 -1 -290 -347)">
	<stop  offset="0.2335" style="stop-color:#FFDD8F"/>
	<stop  offset="0.3667" style="stop-color:#FFE7AE"/>
	<stop  offset="0.6333" style="stop-color:#FFF8E8"/>
	<stop  offset="0.7614" style="stop-color:#FFFFFF"/>
</linearGradient>
<path fill="url(#SVGID_14_)" stroke="#4E3A1B" stroke-width="0.2284" stroke-miterlimit="10" d="M14.52,9.82
	c-0.22,0.31-0.36,0.68-0.36,1.09h-3.72c0-1.23,0.4-2.36,1.07-3.28L14.52,9.82z"/>
<linearGradient id="SVGID_15_" gradientUnits="userSpaceOnUse" x1="311.3291" y1="-356.179" x2="307.7128" y2="-357.4243" gradientTransform="matrix(1 0 0 -1 -290 -347)">
	<stop  offset="0.2335" style="stop-color:#FFDD8F"/>
	<stop  offset="0.3667" style="stop-color:#FFE7AE"/>
	<stop  offset="0.6333" style="stop-color:#FFF8E8"/>
	<stop  offset="0.7614" style="stop-color:#FFFFFF"/>
</linearGradient>
<path fill="url(#SVGID_15_)" stroke="#4E3A1B" stroke-width="0.2284" stroke-miterlimit="10" d="M21.6,10.91h-3.72
	c0-0.41-0.13-0.79-0.36-1.09l3.01-2.19C21.21,8.55,21.6,9.68,21.6,10.91z"/>
<path fill="#FFFFFF" stroke="#4E3A1B" stroke-width="0.2284" stroke-miterlimit="10" d="M17.88,10.91c0,1.03-0.83,1.86-1.86,1.86
	s-1.86-0.83-1.86-1.86c0-0.41,0.13-0.79,0.36-1.09c0.23-0.31,0.55-0.55,0.93-0.68c0.18-0.06,0.37-0.09,0.57-0.09
	c0.2,0,0.39,0.03,0.57,0.09c0.38,0.12,0.7,0.36,0.93,0.68C17.75,10.12,17.88,10.5,17.88,10.91z"/>
<line fill="none" stroke="#4E3A1B" stroke-width="0.2284" stroke-miterlimit="10" x1="10.44" y1="24.14" x2="10.44" y2="24.14"/>
<linearGradient id="SVGID_16_" gradientUnits="userSpaceOnUse" x1="300.85" y1="-369.9376" x2="300.85" y2="-367.6002" gradientTransform="matrix(1 0 0 -1 -290 -347)">
	<stop  offset="0.2964" style="stop-color:#808136"/>
	<stop  offset="0.8464" style="stop-color:#A0A243"/>
</linearGradient>
<path fill="url(#SVGID_16_)" stroke="#4E3A1B" stroke-width="0.2284" stroke-miterlimit="10" d="M11.25,20.6
	c-0.52,0.66-0.8,1.49-0.8,2.34V20.6H11.25z"/>
<linearGradient id="SVGID_17_" gradientUnits="userSpaceOnUse" x1="300.44" y1="-365.185" x2="304.16" y2="-365.185" gradientTransform="matrix(1 0 0 -1 -290 -347)">
	<stop  offset="0.2335" style="stop-color:#FFDD8F"/>
	<stop  offset="0.3667" style="stop-color:#FFE7AE"/>
	<stop  offset="0.6333" style="stop-color:#FFF8E8"/>
	<stop  offset="0.7614" style="stop-color:#FFFFFF"/>
</linearGradient>
<path fill="url(#SVGID_17_)" stroke="#4E3A1B" stroke-width="0.2284" stroke-miterlimit="10" d="M14.16,15.76v0.28
	c0,1.01-0.37,1.98-1.08,2.69l-1.53,1.53c-0.11,0.11-0.21,0.23-0.31,0.35h-0.8v-4.84h3.72V15.76z"/>
<linearGradient id="SVGID_18_" gradientUnits="userSpaceOnUse" x1="306.02" y1="-357.9" x2="306.02" y2="-377.14" gradientTransform="matrix(1 0 0 -1 -290 -347)">
	<stop  offset="0.2335" style="stop-color:#FBB44C"/>
	<stop  offset="0.2915" style="stop-color:#F0A94A"/>
	<stop  offset="0.609" style="stop-color:#B6723E"/>
	<stop  offset="0.7614" style="stop-color:#9F5D3A"/>
</linearGradient>
<path fill="url(#SVGID_18_)" stroke="#4E3A1B" stroke-width="0.2284" stroke-miterlimit="10" d="M21.6,22.94v1.2l-1.04,0.38
	c-2.76,1-4.54,3.2-4.54,5.62c0-2.42-1.78-4.62-4.54-5.62l-1.04-0.38v-1.2c0-0.85,0.29-1.67,0.8-2.34c0.09-0.12,0.2-0.24,0.31-0.35
	l1.53-1.53c0.71-0.71,1.08-1.68,1.08-2.69V10.9c0,1.03,0.83,1.86,1.86,1.86s1.86-0.83,1.86-1.86v5.13c0,1.01,0.4,1.97,1.11,2.69
	l1.53,1.53c0.11,0.11,0.21,0.23,0.3,0.35l0,0C21.34,21.26,21.6,22.08,21.6,22.94z"/>
<line fill="none" stroke="#4E3A1B" stroke-width="0.2284" stroke-miterlimit="10" x1="17.88" y1="16.18" x2="17.88" y2="16.04"/>
<linearGradient id="SVGID_19_" gradientUnits="userSpaceOnUse" x1="311.6" y1="-360.33" x2="307.88" y2="-360.33" gradientTransform="matrix(1 0 0 -1 -290 -347)">
	<stop  offset="0.2335" style="stop-color:#FFDD8F"/>
	<stop  offset="0.3667" style="stop-color:#FFE7AE"/>
	<stop  offset="0.6333" style="stop-color:#FFF8E8"/>
	<stop  offset="0.7614" style="stop-color:#FFFFFF"/>
</linearGradient>
<rect x="17.88" y="10.91" fill="url(#SVGID_19_)" stroke="#4E3A1B" stroke-width="0.2284" stroke-miterlimit="10" width="3.72" height="4.84"/>
<line fill="none" stroke="#4E3A1B" stroke-width="0.2284" stroke-miterlimit="10" x1="8.5" y1="5.44" x2="8.46" y2="5.41"/>
<line fill="none" stroke="#4E3A1B" stroke-width="0.2284" stroke-miterlimit="10" x1="14.53" y1="9.83" x2="14.52" y2="9.82"/>
<line fill="none" stroke="#4E3A1B" stroke-width="0.2284" stroke-miterlimit="10" x1="13.15" y1="2.06" x2="13.13" y2="2"/>
<linearGradient id="SVGID_20_" gradientUnits="userSpaceOnUse" x1="302.715" y1="-353.3965" x2="305.2532" y2="-356.3163" gradientTransform="matrix(1 0 0 -1 -290 -347)">
	<stop  offset="0.2335" style="stop-color:#FFDD8F"/>
	<stop  offset="0.3667" style="stop-color:#FFE7AE"/>
	<stop  offset="0.6333" style="stop-color:#FFF8E8"/>
	<stop  offset="0.7614" style="stop-color:#FFFFFF"/>
</linearGradient>
<path fill="url(#SVGID_20_)" stroke="#4E3A1B" stroke-width="0.2284" stroke-miterlimit="10" d="M15.45,9.14
	c-0.38,0.12-0.7,0.36-0.93,0.68l-3.01-2.19c0.69-0.94,1.66-1.66,2.79-2.03L15.45,9.14z"/>
<line fill="none" stroke="#4E3A1B" stroke-width="0.2284" stroke-miterlimit="10" x1="15.46" y1="9.17" x2="15.45" y2="9.14"/>
<line fill="none" stroke="#4E3A1B" stroke-width="0.2284" stroke-miterlimit="10" x1="18.91" y1="2.03" x2="18.9" y2="2.06"/>
<linearGradient id="SVGID_21_" gradientUnits="userSpaceOnUse" x1="306.025" y1="-352.33" x2="306.025" y2="-356.14" gradientTransform="matrix(1 0 0 -1 -290 -347)">
	<stop  offset="0.2335" style="stop-color:#FFDD8F"/>
	<stop  offset="0.3667" style="stop-color:#FFE7AE"/>
	<stop  offset="0.6333" style="stop-color:#FFF8E8"/>
	<stop  offset="0.7614" style="stop-color:#FFFFFF"/>
</linearGradient>
<path fill="url(#SVGID_21_)" stroke="#4E3A1B" stroke-width="0.2284" stroke-miterlimit="10" d="M17.75,5.6L16.6,9.14
	c-0.18-0.06-0.37-0.09-0.57-0.09c-0.2,0-0.39,0.03-0.57,0.09L14.3,5.6c0.54-0.18,1.12-0.27,1.72-0.27
	C16.63,5.33,17.2,5.43,17.75,5.6z"/>
<line fill="none" stroke="#4E3A1B" stroke-width="0.2284" stroke-miterlimit="10" x1="16.6" y1="9.14" x2="16.59" y2="9.16"/>
<line fill="none" stroke="#4E3A1B" stroke-width="0.2284" stroke-miterlimit="10" x1="23.57" y1="5.43" x2="23.55" y2="5.44"/>
<linearGradient id="SVGID_22_" gradientUnits="userSpaceOnUse" x1="309.3079" y1="-353.3989" x2="307.0096" y2="-356.4487" gradientTransform="matrix(1 0 0 -1 -290 -347)">
	<stop  offset="0.2335" style="stop-color:#FFDD8F"/>
	<stop  offset="0.3667" style="stop-color:#FFE7AE"/>
	<stop  offset="0.6333" style="stop-color:#FFF8E8"/>
	<stop  offset="0.7614" style="stop-color:#FFFFFF"/>
</linearGradient>
<path fill="url(#SVGID_22_)" stroke="#4E3A1B" stroke-width="0.2284" stroke-miterlimit="10" d="M20.54,7.63l-3.01,2.19
	C17.3,9.5,16.98,9.26,16.6,9.14l1.15-3.54C18.88,5.97,19.85,6.69,20.54,7.63z"/>
<line fill="none" stroke="#4E3A1B" stroke-width="0.2284" stroke-miterlimit="10" x1="17.53" y1="9.82" x2="17.5" y2="9.84"/>
<linearGradient id="SVGID_23_" gradientUnits="userSpaceOnUse" x1="313.46" y1="-371.14" x2="313.46" y2="-367.6" gradientTransform="matrix(1 0 0 -1 -290 -347)">
	<stop  offset="0.2964" style="stop-color:#808136"/>
	<stop  offset="0.8464" style="stop-color:#A0A243"/>
</linearGradient>
<path fill="url(#SVGID_23_)" stroke="#4E3A1B" stroke-width="0.2284" stroke-miterlimit="10" d="M25.32,20.6v0.36
	c0,1.12-0.82,2.13-2.09,2.59l-1.63,0.59V20.6H25.32z"/>
<path opacity="0.4" fill="none" stroke="#FAB16E" stroke-width="0.2284" stroke-miterlimit="10" enable-background="new    " d="
	M16.76,1.8l0.43,0.36c0.3,0.25,0.71,0.34,1.09,0.22l0.54-0.17c0.53-0.17,1.11,0.07,1.37,0.57l0.26,0.5
	c0.18,0.35,0.53,0.58,0.92,0.62l0.56,0.05C22.5,4,22.94,4.44,22.99,5l0.05,0.56c0.03,0.39,0.27,0.74,0.62,0.92l0.5,0.26
	c0.5,0.26,0.74,0.84,0.57,1.37l-0.17,0.54c-0.12,0.38-0.04,0.79,0.22,1.09l0.36,0.43c0.36,0.43,0.36,1.05,0,1.48l-0.36,0.43
	c-0.25,0.3-0.34,0.71-0.22,1.09l0.17,0.54c0.17,0.53-0.07,1.11-0.57,1.37l-0.5,0.26c-0.35,0.18-0.58,0.53-0.62,0.92l-0.05,0.56
	c-0.05,0.56-0.49,1-1.05,1.05l-0.56,0.05c-0.39,0.03-0.74,0.27-0.92,0.62l-0.26,0.5c-0.26,0.5-0.84,0.74-1.37,0.57l-0.54-0.17
	c-0.38-0.12-0.79-0.04-1.09,0.22l-0.43,0.36c-0.43,0.36-1.05,0.36-1.48,0l-0.43-0.36c-0.3-0.25-0.71-0.34-1.09-0.22l-0.54,0.17
	c-0.53,0.17-1.11-0.07-1.37-0.57l-0.26-0.5c-0.18-0.35-0.53-0.58-0.92-0.62l-0.56-0.05c-0.56-0.05-1-0.49-1.05-1.05l-0.05-0.56
	c-0.03-0.39-0.27-0.74-0.62-0.92l-0.5-0.26c-0.5-0.26-0.74-0.84-0.57-1.37l0.17-0.54c0.12-0.38,0.04-0.79-0.22-1.09l-0.36-0.43
	c-0.36-0.43-0.36-1.05,0-1.48l0.36-0.43c0.25-0.3,0.34-0.71,0.22-1.09L7.33,8.11C7.16,7.58,7.4,7,7.89,6.74l0.5-0.26
	C8.75,6.3,8.98,5.95,9.01,5.56L9.06,5c0.05-0.56,0.49-1,1.05-1.05l0.56-0.05c0.39-0.03,0.74-0.27,0.92-0.62l0.26-0.5
	c0.26-0.5,0.84-0.74,1.37-0.57l0.54,0.17c0.38,0.12,0.79,0.04,1.09-0.22l0.43-0.36C15.71,1.44,16.34,1.44,16.76,1.8z"/>
<path opacity="0.4" fill="none" stroke="#FAB16E" stroke-width="0.2284" stroke-miterlimit="10" enable-background="new    " d="
	M24.85,15.8c-0.39,0.2-0.88,0.7-0.92,1.14l-0.06,0.63c-0.05,0.63-0.55,1.13-1.18,1.18l-0.63,0.06c-0.44,0.04-0.83,0.3-1.04,0.69
	l-0.29,0.56c-0.29,0.56-0.94,0.83-1.54,0.64l-0.61-0.19c-0.42-0.13-0.89-0.04-1.23,0.24l-0.49,0.41c-0.48,0.41-1.19,0.41-1.67,0
	l-0.49-0.41c-0.34-0.29-0.8-0.38-1.23-0.24l-0.61,0.19c-0.6,0.19-1.25-0.08-1.54-0.64l-0.29-0.56c-0.2-0.39-0.6-0.66-1.04-0.69
	l-0.63-0.06c-0.63-0.05-1.13-0.55-1.18-1.18l-0.06-0.63C8.08,16.5,7.6,16,7.21,15.8"/>
<path opacity="0.4" fill="none" stroke="#FAB16E" stroke-width="0.2284" stroke-miterlimit="10" enable-background="new    " d="
	M6.75,16.69"/>
<path opacity="0.4" fill="none" stroke="#FAB16E" stroke-width="0.2284" stroke-miterlimit="10" enable-background="new    " d="
	M10.42,20.42c-0.24-0.4-0.65-0.66-1.12-0.7l-0.71-0.06c-0.7-0.06-1.26-0.62-1.32-1.32l-0.06-0.71c-0.03-0.36-0.2-0.7-0.46-0.94"/>
<path opacity="0.4" fill="none" stroke="#FAB16E" stroke-width="0.2284" stroke-miterlimit="10" enable-background="new    " d="
	M25.32,16.77c-0.29,0.19-0.45,0.37-0.49,0.86l-0.06,0.71c-0.06,0.7-0.62,1.26-1.32,1.32l-0.71,0.06c-0.47,0.04-0.88,0.3-1.12,0.7"/>
<path opacity="0.4" fill="none" stroke="#FAB16E" stroke-width="0.2284" stroke-miterlimit="10" enable-background="new    " d="
	M25.29,19.58"/>
<path opacity="0.4" fill="none" stroke="#FAB16E" stroke-width="0.2284" stroke-miterlimit="10" enable-background="new    " d="
	M6.75,19.57"/>
<path opacity="0.4" fill="none" stroke="#FAB16E" stroke-width="0.2284" stroke-miterlimit="10" enable-background="new    " d="
	M9.29,20.58c-0.17-0.08-0.35-0.13-0.54-0.15l-0.76-0.07C7.46,20.31,7,20,6.75,19.56"/>
<path opacity="0.4" fill="none" stroke="#FAB16E" stroke-width="0.2284" stroke-miterlimit="10" enable-background="new    " d="
	M25.29,19.58c-0.25,0.44-0.7,0.75-1.23,0.79l-0.76,0.07c-0.16,0.01-0.31,0.05-0.46,0.11"/>
<path opacity="0.4" fill="none" stroke="#FAB16E" stroke-width="0.2284" stroke-miterlimit="10" enable-background="new    " d="
	M16.59,3.92l0.33,0.28c0.23,0.19,0.55,0.26,0.84,0.17l0.41-0.13c0.41-0.13,0.85,0.05,1.05,0.44l0.2,0.38
	c0.14,0.27,0.41,0.45,0.71,0.47l0.43,0.04c0.43,0.04,0.77,0.38,0.8,0.8L21.4,6.8c0.03,0.3,0.2,0.57,0.47,0.71l0.38,0.2
	c0.38,0.2,0.57,0.64,0.44,1.05l-0.13,0.41c-0.09,0.29-0.03,0.6,0.17,0.84l0.28,0.33c0.28,0.33,0.28,0.81,0,1.14l-0.28,0.33
	c-0.19,0.23-0.26,0.55-0.17,0.84l0.13,0.41c0.13,0.41-0.05,0.85-0.44,1.05l-0.38,0.2c-0.27,0.14-0.45,0.41-0.47,0.71l-0.04,0.43
	c-0.04,0.43-0.38,0.77-0.8,0.8l-0.43,0.04c-0.3,0.03-0.57,0.2-0.71,0.47l-0.2,0.38c-0.2,0.38-0.64,0.57-1.05,0.44l-0.41-0.13
	c-0.29-0.09-0.6-0.03-0.84,0.17l-0.33,0.28c-0.33,0.28-0.81,0.28-1.14,0l-0.33-0.28c-0.23-0.19-0.55-0.26-0.84-0.17l-0.41,0.13
	c-0.41,0.13-0.85-0.05-1.05-0.44l-0.2-0.38c-0.14-0.27-0.41-0.45-0.71-0.47l-0.43-0.04c-0.43-0.04-0.77-0.38-0.8-0.8l-0.04-0.43
	c-0.03-0.3-0.2-0.57-0.47-0.71l-0.38-0.2c-0.38-0.2-0.57-0.64-0.44-1.05l0.13-0.41c0.09-0.29,0.03-0.6-0.17-0.84l-0.28-0.33
	c-0.28-0.33-0.28-0.81,0-1.14l0.28-0.33C9.5,9.78,9.57,9.46,9.48,9.17L9.35,8.76C9.22,8.35,9.4,7.91,9.78,7.71l0.38-0.2
	c0.27-0.14,0.45-0.41,0.47-0.71l0.04-0.43c0.04-0.43,0.38-0.77,0.8-0.8l0.43-0.04c0.3-0.03,0.57-0.2,0.71-0.47l0.2-0.38
	c0.2-0.38,0.64-0.57,1.05-0.44l0.41,0.13c0.29,0.09,0.6,0.03,0.84-0.17l0.33-0.28C15.78,3.64,16.26,3.64,16.59,3.92z"/>
<path opacity="0.4" fill="none" stroke="#FAB16E" stroke-width="0.2284" stroke-miterlimit="10" enable-background="new    " d="
	M16.68,2.9l0.38,0.32c0.27,0.22,0.63,0.29,0.96,0.19l0.47-0.15c0.47-0.15,0.98,0.06,1.21,0.5l0.23,0.44
	c0.16,0.31,0.47,0.51,0.81,0.54l0.49,0.04c0.49,0.04,0.88,0.43,0.92,0.92l0.04,0.49c0.03,0.35,0.23,0.65,0.54,0.81l0.44,0.23
	c0.44,0.23,0.65,0.74,0.5,1.21l-0.15,0.47c-0.1,0.33-0.03,0.69,0.19,0.96l0.32,0.38c0.32,0.38,0.32,0.93,0,1.3l-0.32,0.38
	c-0.22,0.27-0.29,0.63-0.19,0.96l0.15,0.47c0.15,0.47-0.06,0.98-0.5,1.21l-0.44,0.23c-0.31,0.16-0.51,0.47-0.54,0.81l-0.04,0.49
	c-0.04,0.49-0.43,0.88-0.92,0.92l-0.49,0.04c-0.35,0.03-0.65,0.23-0.81,0.54l-0.23,0.44c-0.23,0.44-0.74,0.65-1.21,0.5l-0.47-0.15
	c-0.33-0.1-0.69-0.03-0.96,0.19l-0.38,0.32c-0.38,0.32-0.93,0.32-1.3,0L15,18.58c-0.27-0.22-0.63-0.29-0.96-0.19l-0.47,0.15
	c-0.47,0.15-0.98-0.06-1.21-0.5l-0.23-0.44c-0.16-0.31-0.47-0.51-0.81-0.54l-0.49-0.04c-0.49-0.04-0.88-0.43-0.92-0.92l-0.04-0.49
	c-0.03-0.35-0.23-0.65-0.54-0.81l-0.44-0.23c-0.44-0.23-0.65-0.74-0.5-1.21l0.15-0.47c0.1-0.33,0.03-0.69-0.19-0.96l-0.32-0.38
	c-0.32-0.38-0.32-0.93,0-1.3l0.32-0.38C8.57,9.6,8.64,9.24,8.54,8.91L8.37,8.45c-0.15-0.47,0.06-0.98,0.5-1.21l0.44-0.23
	C9.62,6.85,9.82,6.55,9.85,6.2L9.9,5.71c0.04-0.49,0.43-0.88,0.92-0.92l0.49-0.04c0.35-0.03,0.65-0.23,0.81-0.54l0.23-0.44
	c0.23-0.44,0.74-0.65,1.21-0.5l0.47,0.15c0.33,0.1,0.69,0.03,0.96-0.19l0.38-0.32C15.75,2.58,16.3,2.58,16.68,2.9z"/>
<path opacity="0.4" fill="none" stroke="#FAB16E" stroke-width="0.2284" stroke-miterlimit="10" enable-background="new    " d="
	M16.34,6.98l0.19,0.16c0.13,0.11,0.31,0.14,0.47,0.09l0.23-0.07c0.23-0.07,0.48,0.03,0.59,0.24l0.11,0.22
	c0.08,0.15,0.23,0.25,0.4,0.27l0.24,0.02c0.24,0.02,0.43,0.21,0.45,0.45l0.02,0.24c0.01,0.17,0.12,0.32,0.27,0.4l0.22,0.11
	c0.21,0.11,0.32,0.36,0.24,0.59L19.7,9.93c-0.05,0.16-0.02,0.34,0.09,0.47l0.16,0.19c0.16,0.18,0.16,0.45,0,0.64l-0.16,0.19
	c-0.11,0.13-0.14,0.31-0.09,0.47l0.07,0.23c0.07,0.23-0.03,0.48-0.24,0.59l-0.22,0.11c-0.15,0.08-0.25,0.23-0.27,0.4l-0.02,0.24
	c-0.02,0.24-0.21,0.43-0.45,0.45l-0.24,0.02c-0.17,0.01-0.32,0.12-0.4,0.27l-0.11,0.22c-0.11,0.21-0.36,0.32-0.59,0.24L17,14.59
	c-0.16-0.05-0.34-0.02-0.47,0.09l-0.19,0.16c-0.18,0.16-0.45,0.16-0.64,0l-0.19-0.16c-0.13-0.11-0.31-0.14-0.47-0.09l-0.23,0.07
	c-0.23,0.07-0.48-0.03-0.59-0.24l-0.11-0.22c-0.08-0.15-0.23-0.25-0.4-0.27l-0.24-0.02c-0.24-0.02-0.43-0.21-0.45-0.45L13,13.22
	c-0.01-0.17-0.12-0.32-0.27-0.4l-0.22-0.11c-0.21-0.11-0.32-0.36-0.24-0.59l0.07-0.23c0.05-0.16,0.02-0.34-0.09-0.47l-0.16-0.19
	c-0.16-0.18-0.16-0.45,0-0.64l0.16-0.19c0.11-0.13,0.14-0.31,0.09-0.47L12.27,9.7c-0.07-0.23,0.03-0.48,0.24-0.59L12.73,9
	c0.15-0.08,0.25-0.23,0.27-0.4l0.02-0.24c0.02-0.24,0.21-0.43,0.45-0.45l0.24-0.02c0.17-0.01,0.32-0.12,0.4-0.27l0.11-0.22
	c0.11-0.21,0.36-0.32,0.59-0.24l0.23,0.07c0.16,0.05,0.34,0.02,0.47-0.09l0.19-0.16C15.89,6.82,16.16,6.82,16.34,6.98z"/>
<path opacity="0.4" fill="none" stroke="#FAB16E" stroke-width="0.2284" stroke-miterlimit="10" enable-background="new    " d="
	M16.26,8l0.14,0.12c0.1,0.08,0.23,0.11,0.35,0.07l0.17-0.05c0.17-0.05,0.36,0.02,0.44,0.18l0.08,0.16c0.06,0.11,0.17,0.19,0.29,0.2
	l0.18,0.02c0.18,0.02,0.32,0.16,0.34,0.34l0.02,0.18c0.01,0.13,0.09,0.24,0.2,0.29l0.16,0.08c0.16,0.08,0.24,0.27,0.18,0.44
	l-0.05,0.17c-0.04,0.12-0.01,0.25,0.07,0.35l0.12,0.14c0.12,0.14,0.12,0.34,0,0.47l-0.12,0.14c-0.08,0.1-0.11,0.23-0.07,0.35
	l0.05,0.17c0.05,0.17-0.02,0.36-0.18,0.44l-0.16,0.08c-0.11,0.06-0.19,0.17-0.2,0.29l-0.02,0.18c-0.02,0.18-0.16,0.32-0.34,0.34
	l-0.18,0.02c-0.13,0.01-0.24,0.09-0.29,0.2l-0.08,0.16c-0.08,0.16-0.27,0.24-0.44,0.18l-0.17-0.05c-0.12-0.04-0.25-0.01-0.35,0.07
	l-0.14,0.12c-0.14,0.12-0.34,0.12-0.47,0l-0.14-0.12c-0.1-0.08-0.23-0.11-0.35-0.07l-0.17,0.05c-0.17,0.05-0.36-0.02-0.44-0.18
	l-0.08-0.16c-0.06-0.11-0.17-0.19-0.29-0.2l-0.18-0.02c-0.18-0.02-0.32-0.16-0.34-0.34l-0.02-0.18c-0.01-0.13-0.09-0.24-0.2-0.29
	l-0.16-0.08c-0.16-0.08-0.24-0.27-0.18-0.44l0.05-0.17c0.04-0.12,0.01-0.25-0.07-0.35l-0.12-0.14c-0.12-0.14-0.12-0.34,0-0.47
	l0.12-0.14c0.08-0.1,0.11-0.23,0.07-0.35l-0.05-0.17c-0.05-0.17,0.02-0.36,0.18-0.44l0.16-0.08c0.11-0.06,0.19-0.17,0.2-0.29
	l0.02-0.18c0.02-0.18,0.16-0.32,0.34-0.34l0.18-0.02c0.13-0.01,0.24-0.09,0.29-0.2l0.08-0.16c0.08-0.16,0.27-0.24,0.44-0.18
	l0.17,0.05c0.12,0.04,0.25,0.01,0.35-0.07L15.79,8C15.92,7.89,16.12,7.89,16.26,8z"/>
<path opacity="0.4" fill="none" stroke="#FAB16E" stroke-width="0.2284" stroke-miterlimit="10" enable-background="new    " d="
	M16.43,5.96l0.23,0.2c0.16,0.14,0.39,0.18,0.59,0.12l0.29-0.09c0.29-0.09,0.6,0.04,0.74,0.31l0.14,0.27c0.1,0.19,0.29,0.32,0.5,0.34
	l0.31,0.03c0.3,0.03,0.54,0.27,0.57,0.57L19.84,8c0.02,0.21,0.15,0.4,0.34,0.5l0.27,0.14c0.27,0.14,0.4,0.45,0.31,0.74l-0.09,0.29
	c-0.06,0.2-0.02,0.43,0.12,0.59l0.2,0.23c0.2,0.23,0.2,0.57,0,0.81l-0.2,0.23c-0.14,0.16-0.18,0.39-0.12,0.59l0.09,0.29
	c0.09,0.29-0.04,0.6-0.31,0.74l-0.27,0.14c-0.19,0.1-0.32,0.29-0.34,0.5l-0.03,0.31c-0.03,0.3-0.27,0.54-0.57,0.57l-0.31,0.03
	c-0.21,0.02-0.4,0.15-0.5,0.34l-0.14,0.27c-0.14,0.27-0.45,0.4-0.74,0.31l-0.29-0.09c-0.2-0.06-0.43-0.02-0.59,0.12l-0.23,0.2
	c-0.23,0.2-0.57,0.2-0.81,0l-0.23-0.2c-0.16-0.14-0.39-0.18-0.59-0.12l-0.29,0.09c-0.29,0.09-0.6-0.04-0.74-0.31l-0.14-0.27
	c-0.1-0.19-0.29-0.32-0.5-0.34l-0.31-0.03c-0.3-0.03-0.54-0.27-0.57-0.57l-0.03-0.31c-0.02-0.21-0.15-0.4-0.34-0.5l-0.27-0.14
	c-0.27-0.14-0.4-0.45-0.31-0.74l0.09-0.29c0.06-0.2,0.02-0.43-0.12-0.59l-0.2-0.23c-0.2-0.23-0.2-0.57,0-0.81l0.2-0.23
	c0.14-0.16,0.18-0.39,0.12-0.59l-0.1-0.28c-0.09-0.29,0.04-0.6,0.31-0.74l0.27-0.14c0.19-0.1,0.32-0.29,0.34-0.5l0.03-0.31
	c0.03-0.3,0.27-0.54,0.57-0.57l0.31-0.03c0.21-0.02,0.4-0.15,0.5-0.34l0.14-0.27c0.14-0.27,0.45-0.4,0.74-0.31l0.29,0.09
	c0.2,0.06,0.43,0.02,0.59-0.12l0.23-0.2C15.85,5.76,16.19,5.76,16.43,5.96z"/>
<path opacity="0.4" fill="none" stroke="#FAB16E" stroke-width="0.2284" stroke-miterlimit="10" enable-background="new    " d="
	M16.51,4.94l0.28,0.24c0.2,0.17,0.47,0.22,0.71,0.14l0.35-0.11c0.35-0.11,0.73,0.05,0.9,0.37l0.17,0.33c0.12,0.23,0.35,0.38,0.6,0.4
	l0.37,0.03c0.37,0.03,0.65,0.32,0.69,0.69l0.03,0.37c0.02,0.26,0.17,0.49,0.4,0.6l0.33,0.17c0.33,0.17,0.48,0.55,0.37,0.9L21.6,9.42
	c-0.08,0.25-0.02,0.52,0.14,0.71l0.24,0.28c0.24,0.28,0.24,0.69,0,0.97l-0.24,0.28c-0.17,0.2-0.22,0.47-0.14,0.71l0.11,0.35
	c0.11,0.35-0.05,0.73-0.37,0.9l-0.33,0.17c-0.23,0.12-0.38,0.35-0.4,0.6l-0.03,0.37c-0.03,0.37-0.32,0.65-0.69,0.69l-0.37,0.03
	c-0.26,0.02-0.49,0.17-0.6,0.4l-0.17,0.33c-0.17,0.33-0.55,0.48-0.9,0.37l-0.35-0.11c-0.25-0.08-0.52-0.02-0.71,0.14l-0.28,0.24
	c-0.28,0.24-0.69,0.24-0.97,0l-0.28-0.24c-0.2-0.17-0.47-0.22-0.71-0.14l-0.35,0.11c-0.35,0.11-0.73-0.05-0.9-0.37l-0.17-0.33
	c-0.12-0.23-0.35-0.38-0.6-0.4l-0.37-0.03c-0.37-0.03-0.65-0.32-0.69-0.69l-0.03-0.37c-0.02-0.26-0.17-0.49-0.4-0.6l-0.33-0.17
	c-0.33-0.17-0.48-0.55-0.37-0.9l0.11-0.35c0.08-0.25,0.02-0.52-0.14-0.71l-0.24-0.28c-0.24-0.28-0.24-0.69,0-0.97l0.24-0.28
	c0.17-0.2,0.22-0.47,0.14-0.71l-0.11-0.35c-0.11-0.35,0.05-0.73,0.37-0.9L11.04,8c0.23-0.12,0.38-0.35,0.4-0.6l0.03-0.37
	c0.03-0.37,0.32-0.65,0.69-0.69l0.37-0.03c0.26-0.02,0.49-0.17,0.6-0.4l0.17-0.33c0.17-0.33,0.55-0.48,0.9-0.37l0.35,0.11
	c0.25,0.08,0.52,0.02,0.71-0.14l0.28-0.24C15.82,4.71,16.23,4.71,16.51,4.94z"/>
<circle opacity="0.4" fill="#FFF8E9" stroke="#4E3A1B" stroke-width="0.2284" stroke-miterlimit="10" enable-background="new    " cx="16.02" cy="10.91" r="1.86"/>
<path fill="none" stroke="#4E3A1B" stroke-width="0.3046" stroke-miterlimit="10" d="M25.32,20.96v9.33h-9.3v-0.15
	c0-2.42,1.77-4.62,4.54-5.62l1.04-0.38l1.63-0.59C24.51,23.09,25.32,22.08,25.32,20.96z"/>
<path fill="none" stroke="#4E3A1B" stroke-width="0.3046" stroke-miterlimit="10" d="M16.02,30.14v0.15h-9.3v-9.33
	c0,1.12,0.82,2.13,2.09,2.59l1.63,0.59l1.04,0.38C14.25,25.52,16.02,27.72,16.02,30.14z"/>
<path fill="none" stroke="#4E3A1B" stroke-width="0.3046" stroke-miterlimit="10" d="M21.6,20.6v2.34c0-0.85-0.26-1.67-0.78-2.34
	H21.6z"/>
<rect x="21.6" y="15.76" fill="none" stroke="#4E3A1B" stroke-width="0.3046" stroke-miterlimit="10" width="3.72" height="4.84"/>
<path fill="none" stroke="#4E3A1B" stroke-width="0.3046" stroke-miterlimit="10" d="M21.6,15.76v4.84h-0.78
	c-0.09-0.12-0.19-0.24-0.3-0.35L19,18.73c-0.71-0.71-1.11-1.68-1.11-2.69v-0.28C17.89,15.76,21.6,15.76,21.6,15.76z"/>
<rect x="6.72" y="15.76" fill="none" stroke="#4E3A1B" stroke-width="0.3046" stroke-miterlimit="10" width="3.72" height="4.84"/>
<rect x="6.72" y="10.91" fill="none" stroke="#4E3A1B" stroke-width="0.3046" stroke-miterlimit="10" width="3.72" height="4.84"/>
<rect x="21.6" y="10.91" fill="none" stroke="#4E3A1B" stroke-width="0.3046" stroke-miterlimit="10" width="3.72" height="4.84"/>
<path fill="none" stroke="#4E3A1B" stroke-width="0.3046" stroke-miterlimit="10" d="M11.51,7.63c-0.67,0.92-1.07,2.05-1.07,3.28
	H6.72c0-2.04,0.66-3.93,1.78-5.47L11.51,7.63z"/>
<path fill="none" stroke="#4E3A1B" stroke-width="0.3046" stroke-miterlimit="10" d="M14.3,5.6c-1.13,0.37-2.1,1.09-2.79,2.03
	L8.5,5.44c1.14-1.57,2.76-2.77,4.65-3.38L14.3,5.6z"/>
<path fill="none" stroke="#4E3A1B" stroke-width="0.3046" stroke-miterlimit="10" d="M18.9,2.06L17.75,5.6
	c-0.54-0.18-1.12-0.27-1.72-0.27c-0.6,0-1.18,0.1-1.72,0.27l-1.15-3.54c0.91-0.29,1.87-0.45,2.87-0.45S17.99,1.77,18.9,2.06z"/>
<path fill="none" stroke="#4E3A1B" stroke-width="0.3046" stroke-miterlimit="10" d="M23.55,5.44l-3.01,2.19
	c-0.68-0.94-1.66-1.66-2.79-2.03l1.15-3.54C20.78,2.68,22.41,3.87,23.55,5.44z"/>
<path fill="none" stroke="#4E3A1B" stroke-width="0.3046" stroke-miterlimit="10" d="M25.32,10.91H21.6c0-1.23-0.39-2.36-1.07-3.28
	l3.01-2.19C24.66,6.98,25.32,8.87,25.32,10.91z"/>
<line fill="none" stroke="#4E3A1B" stroke-width="0.3046" stroke-miterlimit="10" x1="17.88" y1="10.91" x2="17.86" y2="10.91"/>
<path fill="none" stroke="#4E3A1B" stroke-width="0.3046" stroke-miterlimit="10" d="M10.44,20.6v3.54l-1.63-0.59
	c-1.27-0.46-2.09-1.47-2.09-2.59V20.6H10.44z"/>
<rect x="10.44" y="10.91" fill="none" stroke="#4E3A1B" stroke-width="0.3046" stroke-miterlimit="10" width="3.72" height="4.84"/>
<path fill="none" stroke="#4E3A1B" stroke-width="0.3046" stroke-miterlimit="10" d="M14.52,9.82c-0.22,0.31-0.36,0.68-0.36,1.09
	h-3.72c0-1.23,0.4-2.36,1.07-3.28L14.52,9.82z"/>
<path fill="none" stroke="#4E3A1B" stroke-width="0.3046" stroke-miterlimit="10" d="M21.6,10.91h-3.72c0-0.41-0.13-0.79-0.36-1.09
	l3.01-2.19C21.21,8.55,21.6,9.68,21.6,10.91z"/>
<path fill="none" stroke="#4E3A1B" stroke-width="0.3046" stroke-miterlimit="10" d="M17.88,10.91c0,1.03-0.83,1.86-1.86,1.86
	s-1.86-0.83-1.86-1.86c0-0.41,0.13-0.79,0.36-1.09c0.23-0.31,0.55-0.55,0.93-0.68c0.18-0.06,0.37-0.09,0.57-0.09
	c0.2,0,0.39,0.03,0.57,0.09c0.38,0.12,0.7,0.36,0.93,0.68C17.75,10.12,17.88,10.5,17.88,10.91z"/>
<line fill="none" stroke="#4E3A1B" stroke-width="0.3046" stroke-miterlimit="10" x1="10.44" y1="24.14" x2="10.44" y2="24.14"/>
<path fill="none" stroke="#4E3A1B" stroke-width="0.3046" stroke-miterlimit="10" d="M11.25,20.6c-0.52,0.66-0.8,1.49-0.8,2.34V20.6
	H11.25z"/>
<path fill="none" stroke="#4E3A1B" stroke-width="0.3046" stroke-miterlimit="10" d="M14.16,15.76v0.28c0,1.01-0.37,1.98-1.08,2.69
	l-1.53,1.53c-0.11,0.11-0.21,0.23-0.31,0.35h-0.8v-4.84h3.72V15.76z"/>
<path fill="none" stroke="#4E3A1B" stroke-width="0.3046" stroke-miterlimit="10" d="M21.6,22.94v1.2l-1.04,0.38
	c-2.76,1-4.54,3.2-4.54,5.62c0-2.42-1.78-4.62-4.54-5.62l-1.04-0.38v-1.2c0-0.85,0.29-1.67,0.8-2.34c0.09-0.12,0.2-0.24,0.31-0.35
	l1.53-1.53c0.71-0.71,1.08-1.68,1.08-2.69V10.9c0,1.03,0.83,1.86,1.86,1.86s1.86-0.83,1.86-1.86v5.13c0,1.01,0.4,1.97,1.11,2.69
	l1.53,1.53c0.11,0.11,0.21,0.23,0.3,0.35l0,0C21.34,21.26,21.6,22.08,21.6,22.94z"/>
<line fill="none" stroke="#4E3A1B" stroke-width="0.3046" stroke-miterlimit="10" x1="17.88" y1="16.18" x2="17.88" y2="16.04"/>
<rect x="17.88" y="10.91" fill="none" stroke="#4E3A1B" stroke-width="0.3046" stroke-miterlimit="10" width="3.72" height="4.84"/>
<line fill="none" stroke="#4E3A1B" stroke-width="0.3046" stroke-miterlimit="10" x1="8.5" y1="5.44" x2="8.46" y2="5.41"/>
<line fill="none" stroke="#4E3A1B" stroke-width="0.3046" stroke-miterlimit="10" x1="14.53" y1="9.83" x2="14.52" y2="9.82"/>
<line fill="none" stroke="#4E3A1B" stroke-width="0.3046" stroke-miterlimit="10" x1="13.15" y1="2.06" x2="13.13" y2="2"/>
<path fill="none" stroke="#4E3A1B" stroke-width="0.3046" stroke-miterlimit="10" d="M15.45,9.14c-0.38,0.12-0.7,0.36-0.93,0.68
	l-3.01-2.19c0.69-0.94,1.66-1.66,2.79-2.03L15.45,9.14z"/>
<line fill="none" stroke="#4E3A1B" stroke-width="0.3046" stroke-miterlimit="10" x1="15.46" y1="9.17" x2="15.45" y2="9.14"/>
<line fill="none" stroke="#4E3A1B" stroke-width="0.3046" stroke-miterlimit="10" x1="18.91" y1="2.03" x2="18.9" y2="2.06"/>
<path fill="none" stroke="#4E3A1B" stroke-width="0.3046" stroke-miterlimit="10" d="M17.75,5.6L16.6,9.14
	c-0.18-0.06-0.37-0.09-0.57-0.09c-0.2,0-0.39,0.03-0.57,0.09L14.3,5.6c0.54-0.18,1.12-0.27,1.72-0.27
	C16.63,5.33,17.2,5.43,17.75,5.6z"/>
<line fill="none" stroke="#4E3A1B" stroke-width="0.3046" stroke-miterlimit="10" x1="16.6" y1="9.14" x2="16.59" y2="9.16"/>
<line fill="none" stroke="#4E3A1B" stroke-width="0.3046" stroke-miterlimit="10" x1="23.57" y1="5.43" x2="23.55" y2="5.44"/>
<path fill="none" stroke="#4E3A1B" stroke-width="0.3046" stroke-miterlimit="10" d="M20.54,7.63l-3.01,2.19
	C17.3,9.5,16.98,9.26,16.6,9.14l1.15-3.54C18.88,5.97,19.85,6.69,20.54,7.63z"/>
<line fill="none" stroke="#4E3A1B" stroke-width="0.3046" stroke-miterlimit="10" x1="17.53" y1="9.82" x2="17.5" y2="9.84"/>
<path fill="none" stroke="#4E3A1B" stroke-width="0.3046" stroke-miterlimit="10" d="M25.32,20.6v0.36c0,1.12-0.82,2.13-2.09,2.59
	l-1.63,0.59V20.6H25.32z"/>
<linearGradient id="SVGID_24_" gradientUnits="userSpaceOnUse" x1="306.02" y1="-357.9" x2="306.02" y2="-377.14" gradientTransform="matrix(1 0 0 -1 -290 -347)">
	<stop  offset="0.2335" style="stop-color:#FBB44C"/>
	<stop  offset="0.2915" style="stop-color:#F0A94A"/>
	<stop  offset="0.609" style="stop-color:#B6723E"/>
	<stop  offset="0.7614" style="stop-color:#9F5D3A"/>
</linearGradient>
<path fill="url(#SVGID_24_)" stroke="#4E3A1B" stroke-width="0.2284" stroke-miterlimit="10" d="M21.6,22.94v1.2l-1.04,0.38
	c-2.76,1-4.54,3.2-4.54,5.62c0-2.42-1.78-4.62-4.54-5.62l-1.04-0.38v-1.2c0-0.85,0.29-1.67,0.8-2.34c0.09-0.12,0.2-0.24,0.31-0.35
	l1.53-1.53c0.71-0.71,1.08-1.68,1.08-2.69V10.9c0,1.03,0.83,1.86,1.86,1.86s1.86-0.83,1.86-1.86v5.13c0,1.01,0.4,1.97,1.11,2.69
	l1.53,1.53c0.11,0.11,0.21,0.23,0.3,0.35l0,0C21.34,21.26,21.6,22.08,21.6,22.94z"/>
<linearGradient id="SVGID_25_" gradientUnits="userSpaceOnUse" x1="306.02" y1="-357.91" x2="306.02" y2="-377.15" gradientTransform="matrix(1 0 0 -1 -290 -347)">
	<stop  offset="0.2335" style="stop-color:#FDDBBE"/>
	<stop  offset="0.4356" style="stop-color:#E0B484"/>
	<stop  offset="0.6556" style="stop-color:#C28D4A"/>
	<stop  offset="0.7614" style="stop-color:#B77E33"/>
</linearGradient>
<path fill="url(#SVGID_25_)" stroke="#4E3A1B" stroke-width="0.2284" stroke-miterlimit="10" d="M17.88,10.91v5.13
	c0,1.01,0.4,1.97,1.11,2.69l1.53,1.53c0.11,0.11,0.21,0.23,0.3,0.35l0,0c0.51,0.66,0.78,1.48,0.78,2.34v1.2l-1.04,0.38
	c-2.76,1-4.54,3.2-4.54,5.62c0-2.42-1.78-4.62-4.54-5.62l-1.04-0.38v-1.2c0-0.85,0.29-1.67,0.8-2.34c0.09-0.12,0.2-0.24,0.31-0.35
	l1.53-1.53c0.71-0.71,1.08-1.68,1.08-2.69v-5.13"/>
<linearGradient id="SVGID_26_" gradientUnits="userSpaceOnUse" x1="306.115" y1="-358.56" x2="306.115" y2="-377.15" gradientTransform="matrix(1 0 0 -1 -290 -347)">
	<stop  offset="0.2335" style="stop-color:#FBB44C"/>
	<stop  offset="0.2915" style="stop-color:#F0A94A"/>
	<stop  offset="0.609" style="stop-color:#B6723E"/>
	<stop  offset="0.7614" style="stop-color:#9F5D3A"/>
</linearGradient>
<path fill="url(#SVGID_26_)" d="M10.93,30.14v-7.27c0-0.73,0.25-1.44,0.69-2.01c0.08-0.1,0.17-0.21,0.26-0.3l1.61-1.75
	c0.61-0.61,0.94-1.65,0.94-2.52v-4.73h3.2v4.94c0,0.87,0.34,1.72,0.96,2.33l1.78,1.87c0.09,0.09,0.18,0.2,0.26,0.3l0,0
	c0.44,0.57,0.67,1.28,0.67,2.01v7.14"/>
<path fill="#84462C" stroke="#4E3A1B" stroke-width="0.2284" stroke-miterlimit="10" d="M25.32,20.96v9.33h-9.3v-0.15
	c0-2.42,1.77-4.62,4.54-5.62l1.04-0.38l1.63-0.59C24.51,23.09,25.32,22.08,25.32,20.96z"/>
<path fill="#84462C" stroke="#4E3A1B" stroke-width="0.2284" stroke-miterlimit="10" d="M16.02,30.14v0.15h-9.3v-9.33
	c0,1.12,0.82,2.13,2.09,2.59l1.63,0.59l1.04,0.38C14.25,25.52,16.02,27.72,16.02,30.14z"/>
<g>
	<path fill="#D9D7CC" d="M13.97,12.07L13.97,12.07c0.09-0.08,0.22-0.08,0.28,0l0.09,0.12c0.1,0.13,0.31,0.13,0.45,0l0.04-0.03
		c0.14-0.13,0.34-0.13,0.45,0l0.03,0.03c0.12,0.13,0.32,0.13,0.45,0l0.03-0.03c0.13-0.13,0.33-0.13,0.45,0l0.03,0.03
		c0.13,0.13,0.33,0.13,0.45,0l0.03-0.03c0.12-0.13,0.31-0.13,0.45,0l0.03,0.03c0.14,0.13,0.35,0.13,0.45,0l0.1-0.12
		c0.06-0.08,0.19-0.08,0.28,0l0,0c0.15,0.13,0.35,0.04,0.31-0.14l-0.12-0.51c-0.06-0.28-0.31-0.51-0.56-0.51h-3.34
		c-0.24,0-0.5,0.23-0.57,0.51l-0.13,0.51C13.62,12.11,13.82,12.2,13.97,12.07z"/>
	<path fill="none" stroke="#4E3A1B" stroke-width="0.3046" stroke-miterlimit="10" d="M13.97,12.07L13.97,12.07
		c0.09-0.08,0.22-0.08,0.28,0l0.09,0.12c0.1,0.13,0.31,0.13,0.45,0l0.04-0.03c0.14-0.13,0.34-0.13,0.45,0l0.03,0.03
		c0.12,0.13,0.32,0.13,0.45,0l0.03-0.03c0.13-0.13,0.33-0.13,0.45,0l0.03,0.03c0.13,0.13,0.33,0.13,0.45,0l0.03-0.03
		c0.12-0.13,0.31-0.13,0.45,0l0.03,0.03c0.14,0.13,0.35,0.13,0.45,0l0.1-0.12c0.06-0.08,0.19-0.08,0.28,0l0,0
		c0.15,0.13,0.35,0.04,0.31-0.14l-0.12-0.51c-0.06-0.28-0.31-0.51-0.56-0.51h-3.34c-0.24,0-0.5,0.23-0.57,0.51l-0.13,0.51
		C13.62,12.11,13.82,12.2,13.97,12.07z"/>
</g>
<g>
	<path fill="none" stroke="#C8702E" stroke-width="0.3046" stroke-miterlimit="10" d="M11.89,23.2c0.23,0.02,0.38,0.11,0.38,0.3
		c0,0.13-0.07,0.23-0.18,0.29c-0.1,0.05-0.25,0.08-0.41,0.08h-0.5V23.8c0.15-0.01,0.17-0.02,0.17-0.19v-0.73
		c0-0.16-0.02-0.18-0.16-0.19v-0.07h0.57c0.15,0,0.25,0.02,0.32,0.07s0.12,0.12,0.12,0.22c0,0.19-0.17,0.26-0.31,0.28
		C11.89,23.19,11.89,23.2,11.89,23.2z M11.64,23.17c0.19,0,0.27-0.07,0.27-0.23c0-0.17-0.1-0.24-0.21-0.24
		c-0.04,0-0.08,0.01-0.09,0.02s-0.02,0.04-0.02,0.08v0.36h0.05V23.17z M11.6,23.6c0,0.14,0.04,0.18,0.15,0.18s0.23-0.08,0.23-0.26
		s-0.12-0.27-0.34-0.27H11.6V23.6z"/>
	<path fill="none" stroke="#C8702E" stroke-width="0.3046" stroke-miterlimit="10" d="M13.73,23.88c-0.01,0-0.03,0-0.05,0
		c-0.25-0.01-0.32-0.07-0.4-0.19c-0.05-0.08-0.1-0.18-0.16-0.28c-0.03-0.06-0.07-0.08-0.13-0.08h-0.04v0.28
		c0,0.16,0.02,0.17,0.17,0.19v0.07h-0.59V23.8c0.15-0.02,0.17-0.03,0.17-0.19v-0.73c0-0.15-0.02-0.18-0.16-0.19v-0.07h0.54
		c0.18,0,0.28,0.02,0.36,0.07s0.13,0.14,0.13,0.26c0,0.17-0.11,0.26-0.24,0.31c0.03,0.06,0.1,0.18,0.16,0.27
		c0.07,0.11,0.11,0.17,0.15,0.21c0.04,0.04,0.07,0.06,0.12,0.08L13.73,23.88z M12.99,23.25c0.09,0,0.15-0.01,0.2-0.05
		c0.07-0.06,0.09-0.13,0.09-0.23c0-0.2-0.12-0.28-0.23-0.28c-0.05,0-0.08,0.01-0.09,0.02s-0.02,0.03-0.02,0.07v0.47H12.99z"/>
	<path fill="none" stroke="#C8702E" stroke-width="0.3046" stroke-miterlimit="10" d="M14.96,23.54c-0.01,0.09-0.05,0.26-0.07,0.32
		h-1v-0.07c0.17-0.01,0.19-0.02,0.19-0.19v-0.73c0-0.17-0.02-0.18-0.16-0.19v-0.07h0.93c0,0.03,0.01,0.17,0.02,0.29l-0.07,0.01
		c-0.02-0.07-0.05-0.13-0.08-0.17c-0.04-0.03-0.09-0.05-0.19-0.05h-0.1c-0.08,0-0.08,0-0.08,0.07v0.41h0.13
		c0.16,0,0.19-0.01,0.22-0.15h0.07v0.39H14.7c-0.02-0.14-0.05-0.15-0.22-0.15h-0.13v0.32c0,0.09,0.01,0.14,0.05,0.16
		c0.03,0.02,0.11,0.02,0.18,0.02c0.1,0,0.17-0.01,0.22-0.06c0.04-0.04,0.07-0.1,0.11-0.19L14.96,23.54z"/>
	<path fill="none" stroke="#C8702E" stroke-width="0.3046" stroke-miterlimit="10" d="M17,22.69c-0.13,0.02-0.16,0.05-0.22,0.21
		c-0.04,0.12-0.16,0.45-0.33,0.99h-0.1c-0.11-0.29-0.21-0.56-0.32-0.86l0,0c-0.1,0.29-0.2,0.58-0.3,0.86h-0.1
		c-0.11-0.35-0.2-0.66-0.31-1c-0.05-0.15-0.08-0.18-0.2-0.2v-0.07h0.58v0.07c-0.15,0.02-0.15,0.05-0.12,0.15
		c0.07,0.22,0.13,0.45,0.2,0.66l0,0c0.1-0.27,0.19-0.56,0.29-0.86h0.09c0.11,0.29,0.22,0.59,0.33,0.87l0,0
		c0.08-0.24,0.16-0.54,0.18-0.65c0.03-0.11,0.02-0.15-0.14-0.16v-0.07H17V22.69z"/>
	<path fill="none" stroke="#C8702E" stroke-width="0.3046" stroke-miterlimit="10" d="M18.24,23.54c-0.01,0.09-0.05,0.26-0.07,0.32
		h-1v-0.07c0.17-0.01,0.19-0.02,0.19-0.19v-0.73c0-0.17-0.02-0.18-0.16-0.19v-0.07h0.93c0,0.03,0.01,0.17,0.02,0.29l-0.07,0.01
		c-0.02-0.07-0.05-0.13-0.08-0.17c-0.04-0.03-0.09-0.05-0.19-0.05h-0.1c-0.08,0-0.08,0-0.08,0.07v0.41h0.13
		c0.16,0,0.19-0.01,0.22-0.15h0.07v0.39h-0.07c-0.02-0.14-0.05-0.15-0.22-0.15h-0.13v0.32c0,0.09,0.01,0.14,0.05,0.16
		c0.03,0.02,0.11,0.02,0.18,0.02c0.1,0,0.17-0.01,0.22-0.06c0.04-0.04,0.07-0.1,0.11-0.19L18.24,23.54z"/>
	<path fill="none" stroke="#C8702E" stroke-width="0.3046" stroke-miterlimit="10" d="M19.64,23.88c-0.01,0-0.03,0-0.05,0
		c-0.25-0.01-0.32-0.07-0.4-0.19c-0.05-0.08-0.1-0.18-0.16-0.28c-0.03-0.06-0.07-0.08-0.13-0.08h-0.04v0.28
		c0,0.16,0.02,0.17,0.17,0.19v0.07h-0.59V23.8c0.15-0.02,0.17-0.03,0.17-0.19v-0.73c0-0.15-0.02-0.18-0.16-0.19v-0.07h0.54
		c0.18,0,0.28,0.02,0.36,0.07s0.13,0.14,0.13,0.26c0,0.17-0.11,0.26-0.24,0.31c0.03,0.06,0.1,0.18,0.16,0.27
		c0.07,0.11,0.11,0.17,0.15,0.21c0.04,0.04,0.07,0.06,0.12,0.08L19.64,23.88z M18.9,23.25c0.09,0,0.15-0.01,0.2-0.05
		c0.07-0.06,0.09-0.13,0.09-0.23c0-0.2-0.12-0.28-0.23-0.28c-0.05,0-0.08,0.01-0.09,0.02s-0.02,0.03-0.02,0.07v0.47H18.9z"/>
	<path fill="none" stroke="#C8702E" stroke-width="0.3046" stroke-miterlimit="10" d="M20.92,22.69c-0.13,0.01-0.17,0.05-0.24,0.16
		s-0.12,0.19-0.22,0.37c-0.03,0.05-0.03,0.08-0.03,0.13v0.25c0,0.18,0.01,0.19,0.19,0.2v0.07h-0.64V23.8
		c0.17-0.01,0.19-0.02,0.19-0.2v-0.21c0-0.05-0.01-0.07-0.03-0.1c-0.05-0.1-0.13-0.23-0.24-0.43c-0.07-0.13-0.11-0.15-0.22-0.17
		v-0.07h0.56v0.07c-0.13,0.02-0.13,0.04-0.09,0.11c0.07,0.13,0.15,0.27,0.23,0.41c0.06-0.11,0.16-0.29,0.2-0.4
		c0.03-0.08,0.03-0.1-0.11-0.12v-0.07h0.45C20.92,22.62,20.92,22.69,20.92,22.69z"/>
</g>
<g>
	<path fill="#A6621D" stroke="#E18322" stroke-width="0.1074" stroke-miterlimit="10" d="M11.89,23.2c0.23,0.02,0.38,0.11,0.38,0.3
		c0,0.13-0.07,0.23-0.18,0.29c-0.1,0.05-0.25,0.08-0.41,0.08h-0.5V23.8c0.15-0.01,0.17-0.02,0.17-0.19v-0.73
		c0-0.16-0.02-0.18-0.16-0.19v-0.07h0.57c0.15,0,0.25,0.02,0.32,0.07s0.12,0.12,0.12,0.22c0,0.19-0.17,0.26-0.31,0.28
		C11.89,23.19,11.89,23.2,11.89,23.2z M11.64,23.17c0.19,0,0.27-0.07,0.27-0.23c0-0.17-0.1-0.24-0.21-0.24
		c-0.04,0-0.08,0.01-0.09,0.02s-0.02,0.04-0.02,0.08v0.36h0.05V23.17z M11.6,23.6c0,0.14,0.04,0.18,0.15,0.18s0.23-0.08,0.23-0.26
		s-0.12-0.27-0.34-0.27H11.6V23.6z"/>
	<path fill="#A6621D" stroke="#E18322" stroke-width="0.1074" stroke-miterlimit="10" d="M13.73,23.88c-0.01,0-0.03,0-0.05,0
		c-0.25-0.01-0.32-0.07-0.4-0.19c-0.05-0.08-0.1-0.18-0.16-0.28c-0.03-0.06-0.07-0.08-0.13-0.08h-0.04v0.28
		c0,0.16,0.02,0.17,0.17,0.19v0.07h-0.59V23.8c0.15-0.02,0.17-0.03,0.17-0.19v-0.73c0-0.15-0.02-0.18-0.16-0.19v-0.07h0.54
		c0.18,0,0.28,0.02,0.36,0.07s0.13,0.14,0.13,0.26c0,0.17-0.11,0.26-0.24,0.31c0.03,0.06,0.1,0.18,0.16,0.27
		c0.07,0.11,0.11,0.17,0.15,0.21c0.04,0.04,0.07,0.06,0.12,0.08L13.73,23.88z M12.99,23.25c0.09,0,0.15-0.01,0.2-0.05
		c0.07-0.06,0.09-0.13,0.09-0.23c0-0.2-0.12-0.28-0.23-0.28c-0.05,0-0.08,0.01-0.09,0.02s-0.02,0.03-0.02,0.07v0.47H12.99z"/>
	<path fill="#A6621D" stroke="#E18322" stroke-width="0.1074" stroke-miterlimit="10" d="M14.96,23.54
		c-0.01,0.09-0.05,0.26-0.07,0.32h-1v-0.07c0.17-0.01,0.19-0.02,0.19-0.19v-0.73c0-0.17-0.02-0.18-0.16-0.19v-0.07h0.93
		c0,0.03,0.01,0.17,0.02,0.29l-0.07,0.01c-0.02-0.07-0.05-0.13-0.08-0.17c-0.04-0.03-0.09-0.05-0.19-0.05h-0.1
		c-0.08,0-0.08,0-0.08,0.07v0.41h0.13c0.16,0,0.19-0.01,0.22-0.15h0.07v0.39H14.7c-0.02-0.14-0.05-0.15-0.22-0.15h-0.13v0.32
		c0,0.09,0.01,0.14,0.05,0.16c0.03,0.02,0.11,0.02,0.18,0.02c0.1,0,0.17-0.01,0.22-0.06c0.04-0.04,0.07-0.1,0.11-0.19L14.96,23.54z"
		/>
	<path fill="#A6621D" stroke="#E18322" stroke-width="0.1074" stroke-miterlimit="10" d="M17,22.69c-0.13,0.02-0.16,0.05-0.22,0.21
		c-0.04,0.12-0.16,0.45-0.33,0.99h-0.1c-0.11-0.29-0.21-0.56-0.32-0.86l0,0c-0.1,0.29-0.2,0.58-0.3,0.86h-0.1
		c-0.11-0.35-0.2-0.66-0.31-1c-0.05-0.15-0.08-0.18-0.2-0.2v-0.07h0.58v0.07c-0.15,0.02-0.15,0.05-0.12,0.15
		c0.07,0.22,0.13,0.45,0.2,0.66l0,0c0.1-0.27,0.19-0.56,0.29-0.86h0.09c0.11,0.29,0.22,0.59,0.33,0.87l0,0
		c0.08-0.24,0.16-0.54,0.18-0.65c0.03-0.11,0.02-0.15-0.14-0.16v-0.07H17V22.69z"/>
	<path fill="#A6621D" stroke="#E18322" stroke-width="0.1074" stroke-miterlimit="10" d="M18.24,23.54
		c-0.01,0.09-0.05,0.26-0.07,0.32h-1v-0.07c0.17-0.01,0.19-0.02,0.19-0.19v-0.73c0-0.17-0.02-0.18-0.16-0.19v-0.07h0.93
		c0,0.03,0.01,0.17,0.02,0.29l-0.07,0.01c-0.02-0.07-0.05-0.13-0.08-0.17c-0.04-0.03-0.09-0.05-0.19-0.05h-0.1
		c-0.08,0-0.08,0-0.08,0.07v0.41h0.13c0.16,0,0.19-0.01,0.22-0.15h0.07v0.39h-0.07c-0.02-0.14-0.05-0.15-0.22-0.15h-0.13v0.32
		c0,0.09,0.01,0.14,0.05,0.16c0.03,0.02,0.11,0.02,0.18,0.02c0.1,0,0.17-0.01,0.22-0.06c0.04-0.04,0.07-0.1,0.11-0.19L18.24,23.54z"
		/>
	<path fill="#A6621D" stroke="#E18322" stroke-width="0.1074" stroke-miterlimit="10" d="M19.64,23.88c-0.01,0-0.03,0-0.05,0
		c-0.25-0.01-0.32-0.07-0.4-0.19c-0.05-0.08-0.1-0.18-0.16-0.28c-0.03-0.06-0.07-0.08-0.13-0.08h-0.04v0.28
		c0,0.16,0.02,0.17,0.17,0.19v0.07h-0.59V23.8c0.15-0.02,0.17-0.03,0.17-0.19v-0.73c0-0.15-0.02-0.18-0.16-0.19v-0.07h0.54
		c0.18,0,0.28,0.02,0.36,0.07s0.13,0.14,0.13,0.26c0,0.17-0.11,0.26-0.24,0.31c0.03,0.06,0.1,0.18,0.16,0.27
		c0.07,0.11,0.11,0.17,0.15,0.21c0.04,0.04,0.07,0.06,0.12,0.08L19.64,23.88z M18.9,23.25c0.09,0,0.15-0.01,0.2-0.05
		c0.07-0.06,0.09-0.13,0.09-0.23c0-0.2-0.12-0.28-0.23-0.28c-0.05,0-0.08,0.01-0.09,0.02s-0.02,0.03-0.02,0.07v0.47H18.9z"/>
	<path fill="#A6621D" stroke="#E18322" stroke-width="0.1074" stroke-miterlimit="10" d="M20.92,22.69
		c-0.13,0.01-0.17,0.05-0.24,0.16s-0.12,0.19-0.22,0.37c-0.03,0.05-0.03,0.08-0.03,0.13v0.25c0,0.18,0.01,0.19,0.19,0.2v0.07h-0.64
		V23.8c0.17-0.01,0.19-0.02,0.19-0.2v-0.21c0-0.05-0.01-0.07-0.03-0.1c-0.05-0.1-0.13-0.23-0.24-0.43
		c-0.07-0.13-0.11-0.15-0.22-0.17v-0.07h0.56v0.07c-0.13,0.02-0.13,0.04-0.09,0.11c0.07,0.13,0.15,0.27,0.23,0.41
		c0.06-0.11,0.16-0.29,0.2-0.4c0.03-0.08,0.03-0.1-0.11-0.12v-0.07h0.45C20.92,22.62,20.92,22.69,20.92,22.69z"/>
</g>
<g>
	<path fill="#FADF8F" d="M11.89,23.2c0.23,0.02,0.38,0.11,0.38,0.3c0,0.13-0.07,0.23-0.18,0.29c-0.1,0.05-0.25,0.08-0.41,0.08h-0.5
		V23.8c0.15-0.01,0.17-0.02,0.17-0.19v-0.73c0-0.16-0.02-0.18-0.16-0.19v-0.07h0.57c0.15,0,0.25,0.02,0.32,0.07s0.12,0.12,0.12,0.22
		c0,0.19-0.17,0.26-0.31,0.28C11.89,23.19,11.89,23.2,11.89,23.2z M11.64,23.17c0.19,0,0.27-0.07,0.27-0.23
		c0-0.17-0.1-0.24-0.21-0.24c-0.04,0-0.08,0.01-0.09,0.02s-0.02,0.04-0.02,0.08v0.36h0.05V23.17z M11.6,23.6
		c0,0.14,0.04,0.18,0.15,0.18s0.23-0.08,0.23-0.26s-0.12-0.27-0.34-0.27H11.6V23.6z"/>
	<path fill="#FADF8F" d="M13.73,23.88c-0.01,0-0.03,0-0.05,0c-0.25-0.01-0.32-0.07-0.4-0.19c-0.05-0.08-0.1-0.18-0.16-0.28
		c-0.03-0.06-0.07-0.08-0.13-0.08h-0.04v0.28c0,0.16,0.02,0.17,0.17,0.19v0.07h-0.59V23.8c0.15-0.02,0.17-0.03,0.17-0.19v-0.73
		c0-0.15-0.02-0.18-0.16-0.19v-0.07h0.54c0.18,0,0.28,0.02,0.36,0.07s0.13,0.14,0.13,0.26c0,0.17-0.11,0.26-0.24,0.31
		c0.03,0.06,0.1,0.18,0.16,0.27c0.07,0.11,0.11,0.17,0.15,0.21c0.04,0.04,0.07,0.06,0.12,0.08L13.73,23.88z M12.99,23.25
		c0.09,0,0.15-0.01,0.2-0.05c0.07-0.06,0.09-0.13,0.09-0.23c0-0.2-0.12-0.28-0.23-0.28c-0.05,0-0.08,0.01-0.09,0.02
		s-0.02,0.03-0.02,0.07v0.47H12.99z"/>
	<path fill="#FADF8F" d="M14.96,23.54c-0.01,0.09-0.05,0.26-0.07,0.32h-1v-0.07c0.17-0.01,0.19-0.02,0.19-0.19v-0.73
		c0-0.17-0.02-0.18-0.16-0.19v-0.07h0.93c0,0.03,0.01,0.17,0.02,0.29l-0.07,0.01c-0.02-0.07-0.05-0.13-0.08-0.17
		c-0.04-0.03-0.09-0.05-0.19-0.05h-0.1c-0.08,0-0.08,0-0.08,0.07v0.41h0.13c0.16,0,0.19-0.01,0.22-0.15h0.07v0.39H14.7
		c-0.02-0.14-0.05-0.15-0.22-0.15h-0.13v0.32c0,0.09,0.01,0.14,0.05,0.16c0.03,0.02,0.11,0.02,0.18,0.02c0.1,0,0.17-0.01,0.22-0.06
		c0.04-0.04,0.07-0.1,0.11-0.19L14.96,23.54z"/>
	<path fill="#FADF8F" d="M17,22.69c-0.13,0.02-0.16,0.05-0.22,0.21c-0.04,0.12-0.16,0.45-0.33,0.99h-0.1
		c-0.11-0.29-0.21-0.56-0.32-0.86l0,0c-0.1,0.29-0.2,0.58-0.3,0.86h-0.1c-0.11-0.35-0.2-0.66-0.31-1c-0.05-0.15-0.08-0.18-0.2-0.2
		v-0.07h0.58v0.07c-0.15,0.02-0.15,0.05-0.12,0.15c0.07,0.22,0.13,0.45,0.2,0.66l0,0c0.1-0.27,0.19-0.56,0.29-0.86h0.09
		c0.11,0.29,0.22,0.59,0.33,0.87l0,0c0.08-0.24,0.16-0.54,0.18-0.65c0.03-0.11,0.02-0.15-0.14-0.16v-0.07H17V22.69z"/>
	<path fill="#FADF8F" d="M18.24,23.54c-0.01,0.09-0.05,0.26-0.07,0.32h-1v-0.07c0.17-0.01,0.19-0.02,0.19-0.19v-0.73
		c0-0.17-0.02-0.18-0.16-0.19v-0.07h0.93c0,0.03,0.01,0.17,0.02,0.29l-0.07,0.01c-0.02-0.07-0.05-0.13-0.08-0.17
		c-0.04-0.03-0.09-0.05-0.19-0.05h-0.1c-0.08,0-0.08,0-0.08,0.07v0.41h0.13c0.16,0,0.19-0.01,0.22-0.15h0.07v0.39h-0.07
		c-0.02-0.14-0.05-0.15-0.22-0.15h-0.13v0.32c0,0.09,0.01,0.14,0.05,0.16c0.03,0.02,0.11,0.02,0.18,0.02c0.1,0,0.17-0.01,0.22-0.06
		c0.04-0.04,0.07-0.1,0.11-0.19L18.24,23.54z"/>
	<path fill="#FADF8F" d="M19.64,23.88c-0.01,0-0.03,0-0.05,0c-0.25-0.01-0.32-0.07-0.4-0.19c-0.05-0.08-0.1-0.18-0.16-0.28
		c-0.03-0.06-0.07-0.08-0.13-0.08h-0.04v0.28c0,0.16,0.02,0.17,0.17,0.19v0.07h-0.59V23.8c0.15-0.02,0.17-0.03,0.17-0.19v-0.73
		c0-0.15-0.02-0.18-0.16-0.19v-0.07h0.54c0.18,0,0.28,0.02,0.36,0.07s0.13,0.14,0.13,0.26c0,0.17-0.11,0.26-0.24,0.31
		c0.03,0.06,0.1,0.18,0.16,0.27c0.07,0.11,0.11,0.17,0.15,0.21c0.04,0.04,0.07,0.06,0.12,0.08L19.64,23.88z M18.9,23.25
		c0.09,0,0.15-0.01,0.2-0.05c0.07-0.06,0.09-0.13,0.09-0.23c0-0.2-0.12-0.28-0.23-0.28c-0.05,0-0.08,0.01-0.09,0.02
		s-0.02,0.03-0.02,0.07v0.47H18.9z"/>
	<path fill="#FADF8F" d="M20.92,22.69c-0.13,0.01-0.17,0.05-0.24,0.16s-0.12,0.19-0.22,0.37c-0.03,0.05-0.03,0.08-0.03,0.13v0.25
		c0,0.18,0.01,0.19,0.19,0.2v0.07h-0.64V23.8c0.17-0.01,0.19-0.02,0.19-0.2v-0.21c0-0.05-0.01-0.07-0.03-0.1
		c-0.05-0.1-0.13-0.23-0.24-0.43c-0.07-0.13-0.11-0.15-0.22-0.17v-0.07h0.56v0.07c-0.13,0.02-0.13,0.04-0.09,0.11
		c0.07,0.13,0.15,0.27,0.23,0.41c0.06-0.11,0.16-0.29,0.2-0.4c0.03-0.08,0.03-0.1-0.11-0.12v-0.07h0.45
		C20.92,22.62,20.92,22.69,20.92,22.69z"/>
</g>
</svg>
